<svg width="14" height="14" viewBox="0 0 14 14" fill="none" xmlns="http://www.w3.org/2000/svg">
<g id="Group 5051">
<g id="Group 5023">
<path id="Union" d="M13.1025 4.00488C13.6067 4.05621 14 4.48232 14 5V13L13.9951 13.1025C13.9472 13.573 13.573 13.9472 13.1025 13.9951L13 14H5C4.48232 14 4.05621 13.6067 4.00488 13.1025L4 13V5C4 4.44772 4.44772 4 5 4H13L13.1025 4.00488ZM5.5 12.5H12.5V5.5H5.5V12.5Z" fill="white"/>
<path id="Subtract" d="M9 0C9.55228 1.28851e-07 10 0.447715 10 1V4H5C4.44772 4 4 4.44772 4 5V10H1C0.447715 10 8.05326e-09 9.55228 0 9V1C1.28852e-07 0.447715 0.447715 8.05319e-09 1 0H9Z" fill="white"/>
</g>
</g>
</svg>
