<svg width="14" height="14" viewBox="0 0 14 14" fill="none" xmlns="http://www.w3.org/2000/svg">
<g id="Group 5052">
<g id="Group 5021">
<path id="Union" d="M9.10254 0.00488281C9.60667 0.0562145 10 0.482323 10 1V4H13L13.1025 4.00488C13.6067 4.05621 14 4.48232 14 5V13L13.9951 13.1025C13.9472 13.573 13.573 13.9472 13.1025 13.9951L13 14H5C4.48232 14 4.05621 13.6067 4.00488 13.1025L4 13V10H1C0.482323 10 0.0562145 9.60667 0.00488281 9.10254L0 9V1C1.28852e-07 0.447715 0.447715 8.05319e-09 1 0H9L9.10254 0.00488281ZM10 9L9.99512 9.10254C9.98886 9.16403 9.97589 9.22356 9.95898 9.28125C9.94466 9.33018 9.92657 9.37735 9.90527 9.42285C9.90169 9.43052 9.89733 9.43775 9.89355 9.44531C9.87152 9.48944 9.84741 9.53215 9.81934 9.57227C9.81481 9.57873 9.80936 9.58447 9.80469 9.59082C9.74453 9.67261 9.67261 9.74453 9.59082 9.80469C9.58447 9.80936 9.57873 9.81481 9.57227 9.81934C9.53215 9.84741 9.48944 9.87152 9.44531 9.89355C9.43775 9.89733 9.43052 9.90169 9.42285 9.90527C9.37735 9.92657 9.33018 9.94466 9.28125 9.95898C9.22356 9.97589 9.16403 9.98886 9.10254 9.99512L9 10H5.5V12.5H12.5V5.5H10V9ZM1.5 8.5H4V5C4 4.44772 4.44772 4 5 4H8.5V1.5H1.5V8.5Z" fill="#4E5969"/>
</g>
</g>
</svg>
